# xmcd CD database file
#
# Track frame offsets:
#	150
#	33033
#	64004
#	98504
#	127263
#	155180
#	178951
#	205262
#
# Disc length: 3035 seconds
#
# Revision: 0
# Processed by: cddbd v1.4PL0 Copyright (c) Steve Scherf et al.
# Submitted via: CDex 1.50
#
DISCID=6e0bd908
DTITLE=Carolyn Breuer - Serenade
DYEAR=2003
DGENRE=Jazz
TTITLE0=Serenade
TTITLE1=Hector The Collector
TTITLE2=Glacial Period
TTITLE3=To Della Dokey
TTITLE4=Heile - Welt - Schmerz
TTITLE5=Forsaken
TTITLE6=Time Will Tell
TTITLE7=How Deep Is The Ocean
EXTD=YEAR: 2003
EXTT0=
EXTT1=
EXTT2=
EXTT3=
EXTT4=
EXTT5=
EXTT6=
EXTT7=
PLAYORDER=
